<svg height="682pt" viewBox="-90 -21 682 682.66669" width="682pt" xmlns="http://www.w3.org/2000/svg"><path d="m-4.25 0v640h502.476562v-640zm37.5 37.5h427.476562v420h-142.164062v145h-285.3125zm401.71875 457.5-78.90625 81.664062v-81.664062zm-51.722656 107.5 77.480468-80.1875v80.1875zm0 0"/><path d="m415.734375 82.5h-337.5v173.335938h337.5zm-37.5 135.835938h-262.5v-98.335938h262.5zm0 0"/><path d="m80.945312 301.25h143.539063v37.5h-143.539063zm0 0"/><path d="m80.945312 375h143.539063v37.5h-143.539063zm0 0"/><path d="m80.945312 448.75h143.539063v37.5h-143.539063zm0 0"/><path d="m80.945312 522.5h143.539063v37.5h-143.539063zm0 0"/><path d="m270.546875 301.25h143.539063v37.5h-143.539063zm0 0"/><path d="m270.546875 375h143.539063v37.5h-143.539063zm0 0"/></svg>